# xmcd
#
# Track frame offsets: 
#        150
#        16470
#        32315
#        49419
#        65581
#        81991
#        101198
#        117659
#        136222
#        154800
#        172563
#
# Disc length: 2551 seconds
#
# Revision: 0
# Processed by: cddbd v1.5.2PL0 Copyright (c) Steve Scherf et al.
# Submitted via: ExactAudioCopy v1.3
#
DISCID=8e09f50b
DTITLE=Hari Mata Hari - Ćilim
DYEAR=2016
DGENRE=Ballad
TTITLE0=Ćilim
TTITLE1=Još me plašiš - duet Elena Risteska
TTITLE2=Srijeda
TTITLE3=Staromodan tip
TTITLE4=Sarajevo
TTITLE5=Ne traži riječ
TTITLE6=Zavoljeh te ludo
TTITLE7=Nema ljubavi - duet Jelena Tomašević
TTITLE8=Četiri vjetra
TTITLE9=Previše si blizu
TTITLE10=Lastavica
EXTD=
EXTT0=
EXTT1=
EXTT2=
EXTT3=
EXTT4=
EXTT5=
EXTT6=
EXTT7=
EXTT8=
EXTT9=
EXTT10=
PLAYORDER=
